<svg width="16" height="16" viewBox="0 0 16 16" fill="none" xmlns="http://www.w3.org/2000/svg">
<path d="M10.5 13C10.7761 13 11 12.7761 11 12.5V9.5C11 9.22386 11.2239 9 11.5 9H12.5C12.7761 9 13 9.22386 13 9.5V12.7929C13 12.9255 12.9473 13.0527 12.8536 13.1464L11.1464 14.8536C11.0527 14.9473 10.9255 15 10.7929 15H3.20711C3.0745 15 2.94732 14.9473 2.85355 14.8536L1.14645 13.1464C1.05268 13.0527 1 12.9255 1 12.7929V5.20711C1 5.0745 1.05268 4.94732 1.14645 4.85355L2.85355 3.14645C2.94732 3.05268 3.0745 3 3.20711 3H6.5C6.77614 3 7 3.22386 7 3.5V4.5C7 4.77614 6.77614 5 6.5 5H3.5C3.22386 5 3 5.22386 3 5.5V12.5C3 12.7761 3.22386 13 3.5 13H10.5Z" fill="#9CAEC0"/>
<path d="M9 1.5C9 1.22386 9.22386 1 9.5 1H14.5C14.7761 1 15 1.22386 15 1.5V6.5C15 6.77614 14.7761 7 14.5 7H13.5C13.2239 7 13 6.77614 13 6.5V5.35163C13 4.88743 12.4225 4.67378 12.1204 5.02623L7.35139 10.59C7.16184 10.8112 6.82415 10.8242 6.61821 10.6182L5.38179 9.38179C5.17585 9.17585 5.18881 8.83816 5.40995 8.64861L10.9738 3.87963C11.3262 3.57753 11.1126 3 10.6484 3H9.5C9.22386 3 9 2.77614 9 2.5V1.5Z" fill="#9CAEC0"/>
</svg>
