<svg xmlns="http://www.w3.org/2000/svg" width="512" height="512" fill="none"><rect width="512" height="512" fill="#fff" rx="30"/><path fill="#282A36" d="M129 92c-5-4.9999-56 0-61 5-4.9999 5-4.9999 314.001 0 319 5 5 56 10.001 61 5 4.683-4.683.594-167.269.056-187.863-.035-1.372.743-2.145 1.659-1.122C144.459 247.35 227.289 416.29 232 421c5 5 207.001 5.001 212 0 5-5 5-169 0-174-4.999-5-107-5-112 0-4.999 5-4.999 39 0 44 4.389 4.389 42.68 1.073 51.974.197 1.305-.123 2.569.318 2.986 1.56 4.017 11.953 3.696 75.587-.96 80.243-4.999 5.001-88 5-93 0-5-4.999-4.999-224 0-229 4.657-4.658 77.011-4.977 90.93-.956 1.415.409 2 1.78 1.885 3.249-.858 10.92-4.222 57.299.185 61.707 5 5 53.001 5 58 0 5-5 5-111 0-116-4.999-4.9999-207-5.0003-212 0-4.682 4.6827-.595 166.342-.057 186.865.036 1.373-.743 2.145-1.663 1.126C216.524 264.728 133.71 96.7105 129 92z"/></svg>
